<svg viewBox="0 0 840 600" xmlns="http://www.w3.org/2000/svg"><defs><linearGradient id="bg" x1="0" y1="0" x2="0" y2="1"><stop stop-color="#f8f8f7"/><stop offset="1" stop-color="#e8e8e6"/></linearGradient><linearGradient id="black" x1="0" y1="0" x2="1" y2="1"><stop stop-color="#303030"/><stop offset=".55" stop-color="#111"/><stop offset="1" stop-color="#050505"/></linearGradient><linearGradient id="light" x1="0" y1="0" x2="0" y2="1"><stop stop-color="#4a4a4a"/><stop offset="1" stop-color="#202020"/></linearGradient><filter id="shadow"><feGaussianBlur stdDeviation="14"/></filter><pattern id="layers" width="12" height="12" patternUnits="userSpaceOnUse"><path d="M0 11H12" stroke="#777" stroke-width="1" opacity=".18"/></pattern></defs><rect width="840" height="600" fill="url(#bg)"/><ellipse cx="420" cy="505" rx="245" ry="38" fill="#000" opacity=".13" filter="url(#shadow)"/><path d="M300 435V225c0-70 50-116 120-116s120 46 120 116v210h-52V230c0-39-24-64-68-64s-68 25-68 64v205z" fill="url(#black)" stroke="#070707" stroke-width="10"/><rect x="220" y="390" width="100" height="105" rx="34" fill="url(#light)" stroke="#080808" stroke-width="9"/><rect x="520" y="390" width="100" height="105" rx="34" fill="url(#light)" stroke="#080808" stroke-width="9"/><rect width="840" height="600" fill="url(#layers)" opacity=".45"/></svg>